<?xml version="1.0" standalone="no"?><!DOCTYPE svg PUBLIC "-//W3C//DTD SVG 1.1//EN" "http://www.w3.org/Graphics/SVG/1.1/DTD/svg11.dtd"><svg class="icon" width="200px" height="200.00px" viewBox="0 0 1024 1024" version="1.1" xmlns="http://www.w3.org/2000/svg"><path fill="#333333" d="M729.6 640H271.36 263.68c-69.12 0-125.44-56.32-125.44-125.44 0-48.64 28.16-92.16 69.12-112.64 7.68-74.24 71.68-130.56 145.92-130.56h15.36c25.6-61.44 84.48-102.4 151.04-102.4 76.8 0 143.36 53.76 158.72 128 15.36-5.12 33.28-7.68 51.2-7.68 97.28 0 176.64 79.36 176.64 176.64-2.56 94.72-81.92 174.08-176.64 174.08z m-135.68-51.2h135.68c69.12 0 125.44-56.32 125.44-125.44s-56.32-125.44-125.44-125.44c-20.48 0-40.96 5.12-58.88 15.36-7.68 5.12-17.92 5.12-25.6 0-7.68-5.12-12.8-12.8-12.8-23.04 0-61.44-51.2-112.64-112.64-112.64-51.2 0-97.28 35.84-107.52 84.48-2.56 7.68-5.12 12.8-12.8 15.36-5.12 2.56-12.8 5.12-20.48 2.56-7.68-2.56-17.92-2.56-25.6-2.56-53.76 0-97.28 43.52-97.28 97.28 0 10.24-7.68 20.48-17.92 23.04-30.72 10.24-51.2 38.4-51.2 71.68 0 40.96 33.28 74.24 74.24 74.24h332.8zM271.36 885.76c-51.2 0-58.88-35.84-58.88-71.68 0-51.2 43.52-89.6 48.64-92.16 10.24-7.68 23.04-7.68 33.28 0 5.12 5.12 48.64 40.96 48.64 92.16-2.56 28.16-10.24 71.68-71.68 71.68z m-5.12-51.2h5.12c15.36 0 20.48 0 20.48-20.48 0-12.8-5.12-25.6-12.8-35.84-7.68 10.24-12.8 23.04-12.8 35.84-2.56 12.8-2.56 17.92 0 20.48zM476.16 944.64c-51.2 0-58.88-35.84-58.88-71.68 0-51.2 43.52-89.6 48.64-92.16 10.24-7.68 23.04-7.68 33.28 0 5.12 5.12 48.64 40.96 48.64 92.16-2.56 28.16-10.24 71.68-71.68 71.68z m-5.12-51.2h5.12c15.36 0 20.48 0 20.48-20.48 0-12.8-5.12-25.6-12.8-35.84-7.68 10.24-12.8 23.04-12.8 35.84-2.56 12.8-2.56 17.92 0 20.48zM668.16 862.72c-51.2 0-58.88-35.84-58.88-71.68 0-51.2 43.52-89.6 48.64-92.16 10.24-7.68 23.04-7.68 33.28 0 5.12 5.12 48.64 40.96 48.64 92.16-2.56 28.16-10.24 71.68-71.68 71.68z m-5.12-51.2h5.12c15.36 0 20.48 0 20.48-20.48 0-12.8-5.12-25.6-12.8-35.84-7.68 10.24-12.8 23.04-12.8 35.84-2.56 12.8 0 17.92 0 20.48z"  /></svg>